<?xml version="1.0" encoding="UTF-8"?><svg id="a" xmlns="http://www.w3.org/2000/svg" viewBox="0 0 1080 1080"><defs><style>.b{fill:#ed6aa7;}.c{fill:#f5f200;}.d{fill:#fefefe;}.e{fill:#fbfbfb;}.f{fill:#c33113;}.g{fill:#a7a9e5;}.h{fill:#abace9;}.i{fill:#db5b2f;}.j{fill:#221d1b;}.k{fill:#0c0a0b;}.l{fill:#0b0b0d;}.m{fill:#0b0808;}.n{fill:#080907;}.o{fill:#111;}.p{fill:#70adc9;}.q{fill:#48901a;}</style></defs><path class="d" d="M.1,539.49C.1,361.22,.11,182.95,.01,4.68,0,1.04,.65,.02,4.54,.02,361.43,.13,718.32,.13,1075.21,0c4.19,0,4.79,1.01,4.79,4.93-.11,356.71-.11,713.42,0,1070.14,0,3.93-.61,4.93-4.79,4.93-356.73-.13-713.45-.13-1070.18,0-4.41,0-5.03-1.13-5.03-5.19,.11-178.44,.1-356.88,.1-535.32Zm485.73,69.4c-4.18,.83-4.02-1.31-2.99-4.24,3.23-9.24,6.42-18.5,9.58-27.77,.86-2.54,1.9-5.52-.65-7.36-2.31-1.66-4.73-.11-6.7,1.62-3.85,2.64-6.41,6.21-7.71,10.72,3.05-3.19,5.33-7.04,8.85-9.78,3.63-.17,2.58,2,1.93,3.92-3.2,9.38-6.44,18.75-9.6,28.15-.84,2.5-2.1,5.49,.5,7.34,2.74,1.94,5.67,.93,7.96-1.54,3.96-3.05,6.03-7.27,7.33-11.99-3.23,3.36-4.81,7.97-8.49,10.93Zm146.28-36.84c2.86-.25,3.04,1.18,2.14,3.35-1.91,4.58-3.72,9.2-5.72,13.74-2.4,5.45-4.95,10.85-6.2,16.72-.5,2.37-.45,4.71,1.77,6.29,2.2,1.57,4.46,.9,6.55-.28,1.27-.72,2.65-1.4,3.36-2.83,2.24-1.29,3.22-3.72,4.95-5.45,1.88-1.88,1.89-5.37,5.19-5.98,.63,3.46-1.85,6.13-2.37,9.31-.34,2.06-.69,4.08,1.27,5.41,1.81,1.22,3.82,.98,5.65-.12,5.18-3.1,7.74-8.02,9.4-13.53-2.28,2.56-4.02,5.5-6.07,8.22-1.14,1.52-2.68,3.69-4.82,2.66-2.57-1.24-.75-3.58-.18-5.28,3.48-10.38,7.15-20.7,10.59-31.09,.29-.89,2.42-3.03-.61-3.27-1.45-.12-3.76-1.37-4.34,1.67-1.08,5.76-4.04,10.85-5.98,16.31-4.24,6.94-7.81,14.34-13.9,19.99-1.66,.59-3.41,2.2-5.06,.73-1.56-1.4-.62-3.4-.09-5.13,.49-1.58,.89-3.2,1.51-4.73,2.99-7.36,6.08-14.68,9.07-22.04,1.01-2.49,2.07-5.43-.55-7.27-2.3-1.62-4.73-.15-6.67,1.63-3.87,2.6-6.38,6.2-7.67,10.71,2.91-3.28,5.32-6.98,8.76-9.74Zm-85.15,36.85c3.15-3.02,5.29-6.62,5.88-11.17-2.3,3.41-4.6,6.82-6.9,10.22-1.32,.62-2.71,1.93-4.1,.82-1.61-1.29-.56-3.06-.07-4.59,5.58-17.36,11.18-34.7,16.76-52.06,.63-1.96,1.17-3.95,2.11-7.15-4.49,3.23-8.75,2.27-13.06,3.49q6.63,2.48,4.46,9.29c-3.54,11.05-7.13,22.08-10.65,33.14-1.66,5.21-3.44,10.4-4.7,15.71-1.1,4.65,1.94,7.01,6.41,5.27,1.52-.59,2.99-1.44,3.85-2.98Zm63.99,0c3.15-3.02,5.29-6.62,5.88-11.17-2.3,3.41-4.6,6.82-6.9,10.22-1.32,.62-2.71,1.93-4.1,.82-1.61-1.29-.56-3.06-.07-4.59,5.58-17.36,11.18-34.7,16.76-52.06,.63-1.96,1.17-3.95,2.11-7.15-4.49,3.23-8.75,2.27-13.06,3.49q6.63,2.48,4.46,9.29c-3.54,11.05-7.13,22.08-10.65,33.14-1.66,5.21-3.44,10.4-4.7,15.71-1.1,4.65,1.94,7.01,6.41,5.27,1.52-.59,2.99-1.44,3.85-2.98Zm-201-59.1c2.38,.02,4.55-.84,6.67-1.74,6.72-2.86,13.4-3.23,20.21-.26,1.78,.78,3.81,1.13,5.76,1.36,2.52,.3,4.57-.69,5.74-3.05,1.1-2.24,1.31-4.69-.33-6.59-6.54-7.59-16.89-15.7-29.94-12.38-2.08-.35-3.9,.65-5.75,1.24-12.75,4.02-25.35,8.44-38.83,9.79-5.55,.56-10.88,2.79-14.59,7.53-1.02,.47-1.24,1.35-1.21,2.35-.71,.93-.63,1.9-.16,2.9,0,1.05,.32,1.89,1.4,2.28,.33,.27,.67,.54,1,.81,4.53,3.19,9.29,1.58,14.02,.69,.68-.07,1.36-.14,2.04-.21,1.99-.26,3.98-.52,5.97-.77,1.69,.23,3.37,.21,4.99-.41,1.75,.51,3.37-.11,5.02-.53,1.01-.11,2.02-.22,3.03-.33,1.73,.27,3.34-.19,4.94-.77,.69-.17,1.37-.34,2.06-.52,.65-.15,1.3-.3,1.96-.44,1.01-.2,2.03-.4,3.04-.61,.99-.12,1.98-.23,2.97-.35Zm110.89,47c-1.1,2.96-2.2,5.92-3.29,8.88-.8,2.16-1.13,4.46,.93,5.93,1.87,1.33,4.2,1.06,6.15-.18,4.94-3.14,7.54-7.92,9.12-13.37-1.71,1.74-2.85,3.88-4.24,5.84-1.68,2.36-3.43,6.42-6.54,4.84-3-1.53-.13-5.02,.71-7.44,3.73-10.75,7.68-21.42,11.63-32.35-4.1,.45-5.68,3.29-7.45,6.12-2.9-6.65-7.05-7.98-12.85-4.43-3.76,2.3-6.64,5.56-9.03,9.19-5.29,8.04-9.29,16.58-8.15,26.56,.71,6.16,5.3,8.07,10.36,4.45,2.42-1.74,4.59-3.83,5.92-6.61,2.68-2.09,2.96-6.34,6.73-7.44Zm-332.84-61.66c-1.81-1.61-3.89-.94-5.91-.68-2.21-.57-3.54,.42-4.29,2.42-3.6,5.63-6.22,11.4-2.71,18.1,2.55,4.97,7.28,5.28,12,5.61,.67,.07,1.34,.14,2.02,.21,6.21,1.29,12.12,3.42,17.88,6.09,4.28,1.99,8.89,2.96,13.58,2.87,8.14-.17,16.27-.65,24.41-1l2.04-.12c4.11-.04,7.59-1.59,10.51-4.45,.51-.4,1.01-.81,1.52-1.21,1.85-.79,3.24-2.02,3.85-4,2.54-3.77,.93-6-2.63-7.89-6.19-3.27-12.66-2.5-19.04-1.4-6.79,1.17-13.52,2.14-20.26,.2-4.33-1.24-9.04-1.46-13.04-3.15-6.24-2.65-15.49-.19-18.01-9.73-.19-1.08-.8-1.72-1.9-1.87Zm618.91,15.55c1.87-.51,3.66-1.17,4.98-2.71,8.73-3.03,16.9-6.76,22.37-14.85,2.96-4.38,3.35-8.15,.09-11.2-3.45-3.23-6.5-1.52-9.82,.65-11.58,7.58-23.86,13.74-37.43,16.89-4.5,1.04-9,2.24-13.79,1.4-10.26-1.79-20.18,.38-29.9,3.4-3.66,1.14-5.56,3.71-3.2,7.7,.34,1.53,1.21,2.57,2.73,3.03,1.93,2,4.51,2.34,7.07,2.73,1.94,.61,3.86,1.33,5.96,.93,.67,.05,1.35,.1,2.02,.16,5.93,.89,11.83,2.46,17.89,1.01l4.02-.25c5.1-.31,10.15-.92,14.96-2.82,1.01-.38,2.03-.76,3.04-1.14,2.68-.54,5.13-1.5,6.97-3.65,.68-.43,1.36-.85,2.04-1.28Zm138.97-173.24c-3.85-1.63-7.56-3.82-11.56-4.8-21.58-5.29-43.16-2.75-64.7,.54-.87,.13-1.99,.89-2.35,1.66-1.78,3.75-4,7.72-1.84,11.85,2.26,4.31,5.87,7.32,11.16,7.13,4.16-.15,8.18-1.02,12.23-2.12,13.07-3.53,26.09-5.67,39.73-1.78,7.96,2.26,15.68,5.52,23.95,6.68,2.89,.41,5.67,.67,7.58-2.2,.95-.54,1.36-1.35,1.26-2.43,.96-3.95-1.46-6.09-4.28-8.01-.94-1.59-2.5-2.23-4.16-2.73-.88-.45-1.75-.91-2.63-1.36-1.13-1.4-2.75-1.93-4.39-2.43Zm-671.9,18.44c-1.29,1.17-1.56,2.51-.73,4.06,1.52,4.79,5.04,5.81,9.42,4.75,16.44-3.97,32.79-8.27,49.54-10.89,6.49-1.01,12.86-1.37,19.33-.14,3.61,.69,7.31,1.09,10.92,.17,12.79-3.26,25.72-5.28,38.96-4.71,2.39,.1,4.6-.47,6.72-1.56,6.44-3.32,6.95-8.27,.79-11.99-8.45-5.11-17.59-7.56-27.66-6.08-9.13,1.34-17.99,4.21-27.28,4.54-1.24-.67-2.48-1.39-3.99-.94-2.17-1.53-4.63-.94-7.01-.94-2.97-.52-5.94-.54-8.9,.04l-3.02,.41c-.99,.19-1.99,.39-2.98,.58-.67,.12-1.35,.24-2.02,.36-.67,.19-1.33,.38-2,.58-1.06-.1-2.11-.13-3,.63-.99,.17-1.97,.34-2.96,.5-.68,.12-1.36,.23-2.04,.35-1.1-.41-2.07-.09-3,.51l-3.01,.32c-8.56,1.03-15.75,5.3-22.92,9.63l-1.07,.41c-4.5,2.04-9.2,3.8-11.7,8.57-.35,.18-.48,.46-.38,.84Zm549.34,37.37c-.09,3.79,.43,7.96-.98,11.68-4.95,13-8.33,26.54-14.64,39.09-6.09,12.1-14.61,20.34-28.34,22.58-3.3,.54-5.87-.17-8.21-2.38-4.6-4.35-4.1-9.97-3.54-15.4,1.66-16.17,7.43-31.3,12.41-46.61,3.23-9.92,6.11-19.5-3.83-27.78-6.12-5.1-16.07-3.44-19.5,3.77-2.46,5.17-2.17,10.43-.29,15.52,2.54,6.89,1.13,12.94-1.37,19.68-5.29,14.24-11.15,28.39-11.46,44.08-.28,14.51,12.95,28.43,27.63,27.69,28.67-1.44,48.07-17.98,59.35-44.06,5.51-12.73,9.52-26.23,12.84-39.8,1.7-6.94,4.44-13.14,9.74-18.15,1.77-1.68,3.12-3.91,4.31-6.08,2.57-4.65,.88-8.11-4.28-9.16-5.3-1.08-10.6-.62-15.9,.08-7.1,.95-11.42,4.78-13.31,11.66-1.22,4.42-.95,8.9-.64,13.59Zm-348.6-2.75c0-2.82,.12-5.66-.02-8.47-.47-9.11-4.68-12.47-13.68-11.13-4.98,.74-7.17,4.42-9,8.43-3.2,7.01-3.42,14.5-3.15,22.01,.21,5.92-.99,11.49-2.84,17.09-3.44,10.39-6.92,20.77-8.74,31.63-1.94,11.61,3.26,24.38,12.3,29.53,15.73,8.94,40.32,6.59,53.26-5.95,10.31-10,18.98-21.66,24.38-34.98,5.82-14.34,12.01-28.43,19.22-42.1,2.28-4.32,3.4-8.97,3.97-13.81,.27-2.31-.15-4.32-1.46-6.11-5.38-7.34-14.97-7.89-21.02-1.04-5,5.66-8.7,12.08-10.99,19.37-4.12,13.15-8.37,26.25-15.04,38.42-4.08,7.44-8.3,14.8-13.83,21.27-5.95,6.96-14.21,8.31-22.49,3.82-5.07-2.75-6.62-8.49-4.06-17.33,1.7-5.88,4.29-11.51,6.08-17.37,3.31-10.88,8.71-21.33,7.12-33.25Zm424,8.99c0-2.26-.03-3.76,0-5.25,.18-7.61,5.32-10.76,11.89-6.53,5.05,3.26,10.18,6.87,12.84,12.85,1.99,4.46,4.75,8.41,9.53,10.44,4.08,1.73,7.27,.86,8.9-3.42,3.01-7.9,3.24-15.89,.17-23.85-2.71-7.01-6.62-12.16-14.63-14.59-11.23-3.42-21.91-7.2-33.92-3.23-7.04,2.33-11.37,6.44-13.67,13.21-6.29,18.55-5.22,36.35,5.68,52.99,5.48,8.37,10.2,17.14,14.66,26.05,.96,1.93,2.55,4.04,.82,6.5-6.84,9.73-21.41,11.6-30.34,3.9-2.96-2.55-5.08-5.65-6.68-9.2-1.86-4.13-4.14-7.98-8.39-10.2-5.28-2.76-10.09-.73-11.62,5.01-1.55,5.86-.97,11.49,1.79,16.95,6.09,12.05,17.48,16.15,29.23,19.78,9.92,3.06,19.18,4.11,29.12-1.79,10.59-6.29,18.86-22.24,17.27-33.12-1.99-13.62-7.37-25.95-15.86-36.62-4.99-6.27-7.61-12.74-6.79-19.87Zm-576.27-8.37c-.17-4.53-.46-8.95-1.63-13.36-2.84-10.73-8.92-13.56-18.55-8.1-11.84,6.72-21.07,16.05-27.41,28.2-4.31,8.25-9.38,15.92-15.29,23.25-12.83,15.91-26.44,31.21-38.34,47.87-3.71,5.19-6.44,10.86-7.91,17.04-.77,3.22-1.08,6.72,2.15,9.13,3.09,2.31,6.26,1.61,9.38,.05,4.68-2.34,8.95-5.39,11.96-9.6,9.51-13.29,20.79-25.09,31.32-37.51,5.77-6.81,12.42-12.43,20.58-16.23,2.84-1.32,3.8-.88,3.5,2.43-.91,10.11-1.94,20.19-5.59,29.77-2.2,5.77-3.69,11.7-4.29,17.84-.58,5.93,2.9,10.02,8.39,9.95,12.88-.16,23.4-9.54,25.4-22.23,4.1-26.03,2.16-52.51,6.33-78.53Zm-122.04,6.49c4.4-2.97,9.18-3.39,14.15-2.83,11.92,1.35,22.86-1.37,32.42-8.57,6.32-4.76,8.41-12.47,5.8-18.62-2.86-6.76-9.41-10.42-17.36-9.82-17.61,1.33-33.84,7.6-49.5,14.96-9.22,4.33-12.25,13.97-13.96,23.55-1.46,8.21-.27,16.65-1.5,24.85-2.82,18.72-12.7,33.94-24.73,47.99-2.27,2.65-4.89,5-6.56,8.13-3.43,6.43-1.8,13.3,4.05,17.05,4.66,2.99,10.48,1.67,14.64-4.27,8.56-12.22,17.15-24.47,23.1-38.27,4.1-9.51,9.97-17.55,18.56-23.55,6.64-4.63,8.31-4.63,14.06,.9,4.65,4.48,10.03,4.23,14.26-.66,4.31-4.98,2.25-17.31-4.67-21.14-7.07-3.91-13.36-10.36-22.77-9.71Zm379.55,67.41c-1.17,0-2.33,.04-3.5,0-6.67-.23-8.3-3.19-4.83-8.91,1.38-2.27,2.78-4.59,4.54-6.55,11.18-12.48,14.07-27.83,15.55-43.75,.82-8.86,3.52-16.87,11.06-22.54,2.6-1.96,4.62-4.46,3.67-8.09-.94-3.55-3.47-5.43-6.9-6.5-4.68-1.46-9.2-.31-13.81,.31-9.38,1.26-14.17,6.23-14.51,15.65-.1,2.8,.45,5.63,.37,8.43-.41,14.95-5.38,28.69-12.17,41.71-6.28,12.06-11.62,24.58-19.17,36.04-5.63,8.54-1.62,14.81,8.63,15.16,3.83,.13,7.66,.06,11.49,.03,15.49-.11,30.94,.69,46.38,1.9,5.88,.46,11.45-.89,14.41-6.79,4.06-8.09,5.13-16.81,4.54-25.73-.21-3.1-1.67-5.72-4.98-6.83-3.35-1.12-5.98,.2-7.99,2.61-8.59,10.24-19.84,14.01-32.78,13.85Zm-235.52,25.09c4.12-.33,8.43-.71,12.74-1.03,18.27-1.35,35.75-5.51,51.82-14.62,10.23-5.8,17.02-13.89,18.54-26.13,.93-7.46-1.13-13.05-7.17-17.3-2.99-2.1-6.07-4.08-9.03-6.23-4.12-3.01-4.12-4.74-.24-8.11,2.81-2.44,6.33-3.63,9.49-5.46,8.48-4.92,13.29-12.4,13.07-22.05-.23-9.97-6.88-15.7-15.67-19.26-8.98-3.64-18.06-3.41-27.39-1.44-8.06,1.7-15.76,4.91-24.28,4.86-5.43-.03-9.17,3.63-11.07,8.74-1.98,5.34-2.68,10.98-3.27,16.6-2.39,22.83-8.06,44.71-18.53,65.23-1.97,3.86-3.49,7.91-4.45,12.14-1.87,8.25,1.28,12.69,9.76,13.76,1.81,.23,3.65,.2,5.68,.29Zm292.15-49.16c.06,7.47,.39,12.89,2.04,18.22,4.82,15.52,26.55,26.78,44.75,25.2,11.97-1.04,20.25-9.24,27.85-17.19,12.69-13.27,19.88-29.13,22.44-47.84,2.41-17.61-4.26-30.64-16.66-40.68-12.27-9.93-27.47-10.23-42.22-5.71-14.58,4.47-22.56,16.62-29.68,28.87-7.31,12.57-7.76,26.95-8.52,39.12Zm7.23-93.45c-4.48-.2-8.97-.68-13.45-.54-6.48,.2-13.07,.72-18.65,4.44-5.5,3.66-5.11,8.56,.72,11.52,2.5,1.27,5.25,2.06,7.9,3.04,4.71,1.73,6.07,4.17,4.12,8.82-1.92,4.58-4.46,8.89-6.58,13.39-1.86,3.95-2.9,8.25,.9,11.47,3.82,3.24,7.42,.59,10.89-1.52,7.4-4.5,11.8-11.54,16.23-18.62,1.64-2.63,3.24-5.13,6.3-6.79,12.19-6.63,25.67-8.74,38.89-11.87,5.08-1.2,10.33-.32,15.33-1.8,5.35-1.58,6.4-5.74,2.53-9.69-1.8-1.84-3.93-3.03-6.33-3.83-6.25-2.08-12.58-2.76-19.18-1.98-13.18,1.56-26.19,4.99-39.63,3.98Zm28.26,160.72q7.6,2.68,5.51,9.12c-5.26,16.24-10.51,32.49-15.8,48.73-.61,1.88-1.73,3.49,1.04,4.9,6.82,3.47,14.31,2.67,19.72-2.83,8.45-8.59,12.32-19.11,12.39-31.07,0-1.29-.28-2.64-.69-3.88-1.45-4.32-4.45-5.49-8.57-3.42-2.92,1.47-4.88,3.91-6.8,6.45-.7,.92-.89,2.68-3.44,2.07,3.4-10.71,6.79-21.38,10.62-33.46-4.59,3.64-8.77,2.6-13.99,3.38Zm-115.74-177.48q-6.05-3.14-6.09-9.68c-.06-8.32-.09-16.64-.21-24.97-.05-3.56-1.38-6.64-4.83-8.04-3.33-1.35-6.57-.38-9.37,1.73-1.64,1.24-3.07,2.75-5.2,4.69,0-9.08,.03-17.36-.03-25.64-.01-1.35,.74-3.94-2.06-3.03-2.63,.85-5.46,1.77-7.7,4.45,5.21-1.68,5.2,1.24,5.18,4.62-.07,15.32-.04,30.63,.02,45.95,.01,4.07,.65,8.35-4.87,9.66h14.27c-4.27-.94-4.86-3.79-4.82-7.3,.09-7.66-.06-15.32,.05-22.97,.06-4.17,5.6-8.87,10.01-8.52,5.11,.41,5.19,4.36,5.23,8.11,.07,6.83,.04,13.65,.01,20.48-.02,4.11,1.12,8.8-4.77,10.48h15.18Zm28.33-17.33c-2.2,1.65-1.97,3.14-2.33,4.35-2.21,7.27-4.96,10.44-9.16,10.29-4.32-.16-7.79-4.67-8.99-11.69q-1.51-8.78,7.31-8.78c1.16,0,2.33,0,3.49,0,10.22,0,11.39-1.75,7.67-11.58-.47-1.23-1.08-2.44-1.81-3.54-4.07-6.18-11.64-6.65-16.47-1.08-7,8.08-7.39,28.53-.71,36.72,4.08,4.99,10.97,5.7,15.34,1.3,4.13-4.15,5.4-9.46,5.67-15.99Zm-141.53,229.28c-.14-5.59-.53-10.66-5.61-13.07-5.18-2.46-9.74-.06-13.6,3.44-8.19,7.43-12.12,16.91-12.37,27.83-.1,4.56,.9,9.15,5.7,11.31,4.71,2.11,8.87,.06,12.43-2.83,8.62-7,12.56-16.43,13.46-26.69Zm74.42-228.48l-1.25-.24c-.42,2.87-.74,5.76-1.29,8.61-.56,2.83-1.38,5.82-5.08,5.66-3.56-.16-3.73-3.13-4.12-5.81-1.01-7.12-.44-14.27-.51-21.41-.03-2.94-1.13-6.39,.6-8.68,1.42-1.88,4.7-.49,7.15-.71,1.07-.1,2.04-.21,1.92-1.6-.13-1.5-1.33-1.12-2.24-1.16-1-.05-2.02-.15-2.99,.01-3.84,.64-4.9-1.04-4.66-4.7,.15-2.15,.98-4.72-1.35-7.34-1.55,5.42-1.48,11.26-8.12,12.36-.24,.04-.52,.8-.52,1.22,0,1.14,.92,1.29,1.74,1.16,3.95-.62,4.13,1.66,4.06,4.71-.17,7.14-.06,14.29-.05,21.44,0,3.32-.03,6.66,1.22,9.83,1.05,2.66,2.8,4.43,5.87,4.62,3.26,.2,5.99-.66,7.46-3.77,2.15-4.53,2.65-9.32,2.15-14.2Zm-46.69,241.82c-2.57,1.02-2.76,2.69-3.64,3.81-1.64,2.08-3.08,4.33-4.85,6.28-1.96,2.16-4.44,3.82-7.5,2.75-3.21-1.13-3.31-4.27-3.67-7.04-.44-3.36,.22-6.69,1.08-9.86,1.96-7.24,4.33-14.37,10.82-19.05,2.23-1.61,4.96-2.92,7.14-.32,2.01,2.4-.23,4.22-1.82,5.92-.45,.48-1.04,.91-1.3,1.48-.51,1.12-.51,2.29,.5,3.19,1.12,.99,2.15,.41,3.12-.33,2.82-2.16,4.15-8.53,2.17-11.44-2.6-3.84-6.21-3.29-9.72-1.6-10.89,5.23-19.71,25.55-16.12,36.93,1.67,5.3,5.95,7.63,10.8,5.5,6.83-2.99,9.93-9.02,12.98-16.21Zm126.09,.62c-3.15,3.6-5.24,8.03-9.18,10.91-4.34,3.17-8.55,1.85-9.14-3.42-1.3-11.63,2.08-22,10.39-30.41,2.06-2.08,5.21-4.08,7.93-1.35,2.73,2.73-.3,4.67-2.02,6.57-.11,.12-.26,.22-.36,.35-1.03,1.36-1.25,2.79,.17,3.95,1.38,1.12,2.45,.08,3.42-.87,2.83-2.76,3.73-8.89,1.4-11.5-3.16-3.53-6.85-2.55-10.4-.54-10.15,5.75-18.08,24.24-15.3,35.58,1.68,6.83,7.42,9.15,13.33,5.16,5.12-3.45,8.04-8.55,9.76-14.42Zm-195.85,5.29c-.06,4.5-1,7.35-4.77,8.29-4.13,1.03-6.61-.94-8.28-4.54-.68-1.46-.8-4.33-3.38-3.1-2.72,1.29-1.45,3.78-.38,5.63,3.55,6.12,14.01,6.32,18.47,.38,3.37-4.49,3.25-9.22,.7-14.05-2.4-4.55-5.17-8.96-7.02-13.73-1.36-3.52-1.04-7.56,3.2-9.37,3.64-1.55,6.48-.14,7.97,3.62,.59,1.48,1.28,2.93,3.23,1.96,2.08-1.04,1.47-2.82,.67-4.27-1.17-2.13-3.1-3.37-5.54-3.84-4.66-.9-8.65,.44-11.7,3.95-3.01,3.46-3.34,7.64-1.53,11.71,1.68,3.78,3.91,7.31,5.87,10.96,1.26,2.34,2.59,4.68,2.48,6.41Zm94.03-50.53c-2.45,.19-4.12,1.35-4.01,3.95,.09,2.22,1.45,3.61,3.8,3.64,2.6,.03,3.98-1.39,3.98-3.91,0-2.37-1.52-3.46-3.77-3.67Z"/><path class="l" d="M823.33,433.26c-.31-4.69-.57-9.17,.64-13.59,1.89-6.88,6.21-10.71,13.31-11.66,5.29-.7,10.59-1.16,15.9-.08,5.17,1.05,6.85,4.51,4.28,9.16-1.2,2.17-2.54,4.4-4.31,6.08-5.3,5.01-8.04,11.21-9.74,18.15-3.32,13.57-7.33,27.06-12.84,39.8-11.28,26.08-30.69,42.62-59.35,44.06-14.68,.74-27.91-13.18-27.63-27.69,.3-15.68,6.17-29.84,11.46-44.08,2.5-6.74,3.91-12.79,1.37-19.68-1.87-5.09-2.16-10.35,.29-15.52,3.43-7.21,13.38-8.86,19.5-3.77,9.94,8.28,7.06,17.85,3.83,27.78-4.99,15.31-10.75,30.43-12.41,46.61-.56,5.43-1.06,11.05,3.54,15.4,2.34,2.21,4.91,2.92,8.21,2.38,13.73-2.24,22.25-10.48,28.34-22.58,6.31-12.55,9.69-26.09,14.64-39.09,1.42-3.72,.9-7.89,.98-11.68Zm27.16-18.28c-3.68-1.46-7.11-.64-10.51-.24-7.31,.85-9.76,3.54-9.88,11-.05,3.65,.08,7.31,.3,10.96,.59,9.71-4.45,17.94-6.84,26.86-2.83,10.56-7.93,20.01-13.01,29.57-6.36,11.96-16.78,17.46-29.35,20.09-10.17,2.13-19.57-4.81-20.28-15.2-.76-11.09,1.1-21.85,4.39-32.42,3.55-11.41,7.07-22.83,10.43-34.3,1.35-4.62-.88-9.54-4.97-12.05-3.69-2.28-7.31-.78-8.44,3.53-.83,3.2-.26,6.3,.89,9.29,3.17,8.28,1.92,15.93-1.44,24.1-5.42,13.15-10.66,26.5-11,41.14-.28,11.71,10.07,21.91,21.87,20.94,19.15-1.59,33.82-10.64,44.61-26.52,9.37-13.79,12.73-29.89,17.68-45.31,3.38-10.52,6.03-21.1,14.24-29.16,.54-.53,.79-1.35,1.31-2.27Z"/><path class="k" d="M474.73,430.51c1.59,11.92-3.81,22.37-7.12,33.25-1.78,5.87-4.37,11.49-6.08,17.37-2.56,8.83-1.01,14.58,4.06,17.33,8.28,4.49,16.54,3.14,22.49-3.82,5.54-6.48,9.75-13.83,13.83-21.27,6.67-12.16,10.92-25.27,15.04-38.42,2.28-7.29,5.99-13.71,10.99-19.37,6.05-6.85,15.64-6.3,21.02,1.04,1.31,1.79,1.74,3.8,1.46,6.11-.57,4.84-1.7,9.49-3.97,13.81-7.2,13.67-13.4,27.77-19.22,42.1-5.41,13.32-14.07,24.98-24.38,34.98-12.94,12.55-37.53,14.89-53.26,5.95-9.05-5.14-14.25-17.92-12.3-29.53,1.82-10.86,5.29-21.25,8.74-31.63,1.85-5.59,3.05-11.17,2.84-17.09-.26-7.5-.04-14.99,3.15-22.01,1.83-4.01,4.01-7.69,9-8.43,9-1.34,13.21,2.02,13.68,11.13,.14,2.82,.02,5.65,.02,8.47Zm-6.83,4.27c-.25-4.15-.51-8.3-.73-12.45-.11-2.2-.04-4.53-2.83-5.15-2.84-.63-4.28,1.17-5.33,3.44-2.21,4.77-3.33,9.81-3.03,15.02,.6,10.64-1.19,20.78-4.83,30.81-2.88,7.94-5.27,16.09-6.7,24.5-2.17,12.71,4.07,22.37,16.57,25.1,2.11,.46,4.22,.93,6.34,1.36,12.05,2.45,22.87-1.07,31.37-9.12,9.92-9.39,18-20.69,22.98-33.52,5.37-13.83,11.26-27.35,18.24-40.43,1.73-3.24,2.82-6.72,3.53-10.35,.42-2.17-.3-3.44-1.96-4.63-3.36-2.4-6-1.71-8.65,1.32-7.87,8.98-10.33,20.34-13.99,31.17-5.86,17.33-13.97,33.48-25.55,47.67-7.85,9.62-18.76,11.29-30.7,5.52-8.37-4.04-11.02-11.35-8.34-24.09,1.51-7.18,4.67-13.85,6.93-20.81,2.7-8.32,6.05-16.51,6.69-25.38Z"/><path class="m" d="M898.73,439.5c-.82,7.13,1.81,13.6,6.79,19.87,8.49,10.67,13.87,23,15.86,36.62,1.59,10.88-6.68,26.83-17.27,33.12-9.94,5.9-19.2,4.85-29.12,1.79-11.75-3.63-23.14-7.73-29.23-19.78-2.76-5.47-3.34-11.1-1.79-16.95,1.52-5.75,6.34-7.77,11.62-5.01,4.25,2.22,6.53,6.07,8.39,10.2,1.6,3.55,3.72,6.65,6.68,9.2,8.93,7.7,23.5,5.83,30.34-3.9,1.73-2.46,.15-4.57-.82-6.5-4.47-8.91-9.18-17.69-14.66-26.05-10.9-16.64-11.98-34.44-5.68-52.99,2.3-6.77,6.63-10.88,13.67-13.21,12.01-3.97,22.69-.19,33.92,3.23,8.01,2.44,11.92,7.58,14.63,14.59,3.08,7.96,2.84,15.95-.17,23.85-1.63,4.28-4.82,5.15-8.9,3.42-4.77-2.02-7.54-5.98-9.53-10.44-2.66-5.98-7.79-9.59-12.84-12.85-6.57-4.24-11.71-1.08-11.89,6.53-.04,1.5,0,3,0,5.25Zm36.7,4.51c3.4-10.59,1.26-21.28-6.81-25.8-10-5.6-20.81-9.61-32.85-5.54-4.71,1.59-7.67,4.24-9.21,8.89-5.28,16.02-4.69,31.44,4.62,45.93,6.04,9.39,11.56,19.05,16.18,29.22,1.79,3.95,2.96,8.36-.37,11.74-6.52,6.61-14.21,11.76-23.74,12.52-9.47,.76-20.58-7.43-25.05-17.69-1.08-2.47-2.25-4.79-4.19-6.71-2.01-1.98-3.16-1.36-3.62,1.14-1.14,6.14,1.56,11,5.31,15.48,4.62,5.52,11.18,7.85,17.64,9.83,9.24,2.83,18.44,6.51,28.02-.42,8.09-5.85,14.62-16.23,12.94-26.25-2.28-13.54-8.29-25.56-17.01-36.14-3.46-4.2-5.15-8.9-5.41-14.17-.22-4.32-.21-8.66-.13-12.98,.21-11.02,8.07-16.79,18.53-13.11,8.54,3.01,15.09,8.76,19.31,16.94,1.36,2.63,2.63,5.35,5.85,7.12Z"/><path class="n" d="M322.45,431.13c-4.17,26.02-2.23,52.5-6.33,78.53-2,12.69-12.52,22.07-25.4,22.23-5.49,.07-8.97-4.02-8.39-9.95,.6-6.14,2.09-12.08,4.29-17.84,3.65-9.59,4.68-19.66,5.59-29.77,.3-3.31-.66-3.75-3.5-2.43-8.15,3.79-14.8,9.41-20.58,16.23-10.53,12.43-21.8,24.22-31.32,37.51-3.01,4.21-7.29,7.26-11.96,9.6-3.13,1.56-6.3,2.26-9.38-.05-3.23-2.42-2.91-5.91-2.15-9.13,1.47-6.18,4.2-11.85,7.91-17.04,11.9-16.66,25.51-31.96,38.34-47.87,5.91-7.32,10.98-15,15.29-23.25,6.34-12.15,15.57-21.49,27.41-28.2,9.63-5.47,15.71-2.63,18.55,8.1,1.17,4.4,1.46,8.83,1.63,13.36Zm-102.2,97.88c5.82-1.52,9.37-5.21,12.2-9.19,8.02-11.3,17.4-21.42,26.32-31.95,8.26-9.75,16.9-18.89,29.08-23.66,8.19-3.21,12.84,.2,12.05,8.98-1.06,11.73-2.15,23.48-6.64,34.61-1.73,4.29-2.89,8.85-3.21,13.53-.09,1.29-.82,3.13,1.79,3.16,7.29,.09,15.54-6.39,16.92-13.49,.5-2.6,.94-5.24,1.16-7.88,1.82-22.85,1.99-45.81,4.89-68.59,.69-5.4,.6-10.99-1.5-16.26-1.64-4.12-3.89-4.97-7.67-2.69-9.58,5.77-17.32,13.39-22.95,23.12-4.5,7.76-8.13,16.03-13.92,23.03-11.03,13.32-22.15,26.58-32.91,40.12-6.36,8.01-13.16,15.9-15.61,27.15Z"/><path class="n" d="M200.41,437.62c9.41-.65,15.7,5.79,22.77,9.71,6.92,3.83,8.99,16.16,4.67,21.14-4.23,4.89-9.61,5.13-14.26,.66-5.75-5.53-7.42-5.53-14.06-.9-8.59,6-14.45,14.03-18.56,23.55-5.95,13.8-14.54,26.05-23.1,38.27-4.16,5.94-9.98,7.26-14.64,4.27-5.85-3.76-7.48-10.63-4.05-17.05,1.67-3.13,4.3-5.48,6.56-8.13,12.03-14.05,21.9-29.26,24.73-47.99,1.24-8.21,.04-16.64,1.5-24.85,1.71-9.57,4.73-19.21,13.96-23.55,15.67-7.36,31.9-13.64,49.5-14.96,7.95-.6,14.5,3.06,17.36,9.82,2.6,6.15,.52,13.86-5.8,18.62-9.56,7.2-20.5,9.92-32.42,8.57-4.98-.56-9.76-.14-14.15,2.83Zm.38,8.46c-7.93,.28-10.75-3.89-7.62-11.24,1.18-2.77,3.28-4.54,6-5.66,5.86-2.42,11.91-2.52,18.13-1.89,9.28,.94,17.81-1.42,25.27-7.04,2.99-2.25,4.71-5.59,2.98-9.22-1.8-3.79-4.88-6.48-9.59-5.46-11.16,2.42-22.79,2.88-33.25,8.18-2.95,1.49-5.94,3.31-9.12,3.89-6.03,1.12-9.08,5.14-11.47,10.05-2.06,4.22-3.1,8.74-3.31,13.46-.33,7.48-.11,15.05-1.25,22.4-2.94,19-12.83,34.66-24.99,49.08-2.36,2.8-4.76,5.57-6.84,8.57-1.5,2.16-1.13,4.67,.94,6.28,2.36,1.84,4.24-.08,5.39-1.81,7.54-11.32,15.66-22.33,21.08-34.89,5.48-12.71,13.21-23.39,25.16-30.73,7.13-4.38,12.96-3.73,18.94,2.05,1.15,1.11,1.77,3.83,4.18,2.43,2.44-1.42,1.6-3.7,.85-5.79-2.03-5.7-14.27-12.91-21.48-12.66Z"/><path class="m" d="M579.97,505.03c12.94,.16,24.2-3.6,32.78-13.85,2.01-2.4,4.64-3.73,7.99-2.61,3.31,1.11,4.77,3.73,4.98,6.83,.59,8.92-.48,17.64-4.54,25.73-2.96,5.9-8.53,7.25-14.41,6.79-15.44-1.21-30.89-2.01-46.38-1.9-3.83,.03-7.66,.1-11.49-.03-10.25-.35-14.26-6.61-8.63-15.16,7.55-11.46,12.89-23.99,19.17-36.04,6.78-13.02,11.76-26.76,12.17-41.71,.08-2.81-.47-5.63-.37-8.43,.34-9.43,5.13-14.4,14.51-15.65,4.61-.62,9.13-1.77,13.81-.31,3.43,1.07,5.96,2.95,6.9,6.5,.95,3.63-1.07,6.13-3.67,8.09-7.53,5.67-10.23,13.68-11.06,22.54-1.48,15.92-4.37,31.27-15.55,43.75-1.76,1.97-3.17,4.28-4.54,6.55-3.47,5.72-1.84,8.68,4.83,8.91,1.16,.04,2.33,0,3.5,0Zm39.11-8.88c-.85-.08-1.04-.16-1.15-.09-.41,.26-.88,.5-1.18,.86-11.38,13.84-26.87,16.1-43.34,15.1-8.48-.52-12.67-7.87-9.54-15.68,1.25-3.12,2.8-6.08,4.91-8.64,8.69-10.53,14.26-22.35,15.07-36.1,.78-13.45,3.35-26.07,15.33-34.78-4.09-2.52-7.78-1.24-11.46-.69-5.68,.85-10.28,5.57-9.42,11.15,1.82,11.83-1.31,22.77-5.13,33.6-6.26,17.75-15.24,34.2-24.84,50.31-1.26,2.11-3.8,4.37-2.69,6.56,1.21,2.38,4.53,1.2,6.93,1.2,11.81,.02,23.63-.08,35.42,.69,6.63,.43,13.26,1.05,19.89,1.43,2.86,.16,5.93,0,7.41-2.99,3.47-6.95,4.29-14.34,3.78-21.92Z"/><path class="k" d="M344.45,530.12c-2.03-.1-3.87-.07-5.68-.29-8.47-1.07-11.63-5.51-9.76-13.76,.96-4.23,2.48-8.28,4.45-12.14,10.48-20.53,16.14-42.41,18.53-65.23,.59-5.62,1.29-11.26,3.27-16.6,1.9-5.11,5.64-8.77,11.07-8.74,8.52,.05,16.22-3.16,24.28-4.86,9.33-1.97,18.41-2.2,27.39,1.44,8.79,3.56,15.44,9.29,15.67,19.26,.23,9.66-4.59,17.13-13.07,22.05-3.16,1.83-6.68,3.02-9.49,5.46-3.88,3.37-3.88,5.1,.24,8.11,2.95,2.15,6.04,4.13,9.03,6.23,6.03,4.25,8.09,9.84,7.17,17.3-1.52,12.24-8.31,20.33-18.54,26.13-16.07,9.11-33.55,13.26-51.82,14.62-4.31,.32-8.62,.69-12.74,1.03Zm57.47-115.11c-3.64-.4-7.49,.63-11.42,1.37-7.78,1.47-15.1,5.23-23.28,4.71-3.69-.24-5.34,1.98-6.07,5.21-.4,1.78-.94,3.56-1.07,5.37-1.62,21.68-6.7,42.57-14.07,62.96-2.72,7.51-7.72,13.98-9.73,21.8-1.23,4.8-.5,6.19,4.5,6.31,4.97,.12,9.95-.42,14.93-.72,17.11-1.02,33.44-4.91,48.71-12.94,4.96-2.61,9.66-5.76,12.35-10.58,4.92-8.81,7.22-18.5-4.01-23.66-1.63-.75-3-2.08-4.49-3.13-10.07-7.14-10.04-14.97,.26-22.01,3-2.05,6.45-3.42,9.54-5.34,5.74-3.57,8.44-9.03,7.96-15.6-.42-5.78-4.87-8.72-9.68-11.06-4.44-2.16-9.14-2.95-14.43-2.69Z"/><path class="k" d="M636.6,480.96c.77-12.17,1.22-26.55,8.52-39.12,7.12-12.25,15.1-24.4,29.68-28.87,14.75-4.52,29.95-4.22,42.22,5.71,12.41,10.04,19.08,23.07,16.66,40.68-2.56,18.71-9.75,34.58-22.44,47.84-7.6,7.95-15.88,16.15-27.85,17.19-18.2,1.58-39.93-9.68-44.75-25.2-1.66-5.33-1.99-10.76-2.04-18.22Zm53.46-63.4c-7.49,.44-14.62,.96-20.31,5.58-7.68,6.24-14.23,13.68-18.56,22.61-7.01,14.48-8,30.06-6.96,45.83,.32,4.9,2.22,9.4,5.65,13.04,7.82,8.3,17.85,11.82,28.88,13.16,7.73,.94,13.3-3.19,18.77-7.7,.77-.63,1.68-1.09,2.45-1.72,11.65-9.43,20.11-21.15,24.45-35.53,1.48-4.89,1.53-10.19,2.6-15.22,3.1-14.6-4.94-24.45-14.37-33.5-6.36-6.11-15.15-5.12-22.6-6.56Z"/><path class="l" d="M643.82,387.52c13.44,1.01,26.44-2.42,39.63-3.98,6.6-.78,12.93-.09,19.18,1.98,2.4,.8,4.53,1.99,6.33,3.83,3.87,3.96,2.82,8.11-2.53,9.69-5,1.48-10.25,.6-15.33,1.8-13.22,3.12-26.7,5.23-38.89,11.87-3.06,1.66-4.66,4.16-6.3,6.79-4.42,7.08-8.83,14.12-16.23,18.62-3.47,2.11-7.08,4.76-10.89,1.52-3.8-3.23-2.76-7.52-.9-11.47,2.12-4.5,4.66-8.81,6.58-13.39,1.94-4.65,.59-7.09-4.12-8.82-2.65-.97-5.4-1.77-7.9-3.04-5.83-2.96-6.22-7.85-.72-11.52,5.58-3.72,12.17-4.24,18.65-4.44,4.47-.14,8.96,.34,13.45,.54Zm57.14,5.07c-5.93-2.56-11.97-2.97-18.12-2-14.45,2.28-28.89,4.55-43.62,3.64-4.14-.26-8.33-.48-12.45-.2-3.61,.24-7.36,.6-11.09,3.27,2.39,.84,4.11,1.39,5.79,2.05,1.84,.73,3.81,1.32,5.43,2.41,5.25,3.54,6.44,8.39,4.43,14.92-1.75,5.68-5.63,10.39-7.69,16.78,6.89-3.18,11.26-8.05,13.9-13.85,5.46-11.98,16.39-16.31,27.41-19.52,11.72-3.41,23.66-6.73,36.01-7.5Z"/><path class="o" d="M310.07,376.44l3.01-.32c1.25,1.31,2.27,1.28,3-.51,.68-.12,1.36-.23,2.04-.35,1.21,1.15,2.22,1.09,2.96-.5,.88-.77,1.93-.73,3-.63,1.1,1.31,1.64,.68,2-.58,.67-.12,1.35-.24,2.02-.36,1.27,1.24,2.29,1.17,2.98-.58l3.02-.41c2.97,1.28,5.94,1.31,8.9-.04,2.38,0,4.84-.59,7.01,.94,1.01,1.65,2.6,.89,3.99,.94,9.29-.33,18.15-3.21,27.28-4.54,10.07-1.48,19.21,.97,27.66,6.08,6.16,3.73,5.65,8.67-.79,11.99-2.12,1.09-4.33,1.66-6.72,1.56-13.25-.57-26.17,1.45-38.96,4.71-3.6,.92-7.31,.52-10.92-.17-6.47-1.24-12.84-.88-19.33,.14-16.74,2.62-33.1,6.92-49.54,10.89-4.39,1.06-7.9,.04-9.42-4.75,1.24-1.17,.73-2.67,.73-4.06-.1-.38,.03-.66,.38-.84,4.23-2.4,8.57-4.66,11.7-8.57l1.07-.41c2.04,.2,3.94-.28,5.58-1.46,4.6-3.3,9.8-5.17,15.22-6.53,1.03-.26,1.9-.46,2.12-1.64Zm-3.87,6.72c-.37,.17-.74,.33-1.11,.5-3.34,1.47-6.69,2.95-10.03,4.42-2.49-.66-3.96,.61-5.01,2.66l-4.77,2.4-1.2,.74-1.98,1.19c-1.63,0-2.82,.69-2.89,2.4-.05,1.2,.61,1.73,1.77,.85,16-3.65,31.81-8.08,48.08-10.62,8.18-1.28,16.15-1.96,24.25-.19,2.47,.54,4.95,.83,7.41,.19,12.93-3.39,26.09-5.09,39.45-5.15,1.6,0,3.15-.08,5.18-1.29-8.47-4.67-16.72-6.55-25.77-4.71-10.44,2.12-20.94,4.03-31.67,2.33-6.3-1-12.58-1.06-18.87-.08-.39-.48-.7-.39-.96,.12-6.82,2.36-14,2.77-21.03,4.03-.52-.71-.76-.46-.89,.25l.06-.04Z"/><path class="l" d="M960.09,394.41c-1.91,2.87-4.69,2.61-7.58,2.2-8.28-1.16-16-4.42-23.95-6.68-13.65-3.88-26.67-1.75-39.73,1.78-4.05,1.09-8.07,1.97-12.23,2.12-5.29,.19-8.91-2.82-11.16-7.13-2.16-4.13,.06-8.1,1.84-11.85,.36-.77,1.49-1.52,2.35-1.66,21.54-3.29,43.13-5.83,64.7-.54,4.01,.98,7.72,3.17,11.56,4.8,.74,2.12,2.46,2.46,4.39,2.43,.88,.45,1.75,.91,2.63,1.36,.51,2.25,2.28,2.56,4.16,2.73,2.82,1.92,5.24,4.07,4.28,8.01-1.31,.35-1.46,1.3-1.26,2.43Zm-6.81-4.45c-5.25-5.27-11.73-7.71-18.19-10.27-13.77-5.48-27.93-2.96-41.97-2.14-5.72,.33-11.59-1.35-17.21,1.33-1.89,.9-4.52,.54-4.2,3.7,.3,3.07,2.42,4.15,5.16,4.33,3.56,.23,6.86-.95,10.26-1.78,14.44-3.54,28.88-6.6,43.71-1.58,7.36,2.49,14.95,4.3,22.43,6.42Z"/><path class="l" d="M740.22,551.97c-2.36-3.99-.46-6.56,3.2-7.7,9.72-3.02,19.64-5.19,29.9-3.4,4.79,.83,9.29-.36,13.79-1.4,13.57-3.15,25.85-9.31,37.43-16.89,3.32-2.17,6.37-3.88,9.82-.65,3.26,3.05,2.87,6.82-.09,11.2-5.47,8.09-13.64,11.82-22.37,14.85-2.16-.02-4.47-.31-4.98,2.71-.68,.43-1.36,.85-2.04,1.28-2.82,.27-5.45,.89-6.97,3.65-1.01,.38-2.03,.76-3.04,1.14-3.47-.69-6.96,.29-10.5-.24-1.51-.23-4.13,.36-4.46,3.06l-4.02,.25c-5.8-3.19-11.85-2.07-17.89-1.01-.67-.05-1.35-.1-2.02-.16-1.58-2.9-3.81-1.67-5.96-.93-2.56-.39-5.14-.72-7.07-2.73-.05-1.79-.93-2.83-2.73-3.03Zm88.71-23.99c-5.51,3.33-11.04,6.59-16.85,9.4-13.56,6.53-27.2,11.87-42.88,9.84-7.51-.97-15.15,.6-23.08,3.12,4.78,3.75,9.69,2.1,14.12,2.98,11.99,2.39,23.92,1.47,35.1-3.24,9.25-3.9,17.93-9.17,26.81-13.93,3.31-1.77,5.66-4.49,6.84-8.13l.47-.48c-.11,0-.27-.02-.33,.04-.1,.1-.13,.26-.18,.4Z"/><path class="k" d="M175.09,554.98c-3.5-6.69-.89-12.47,2.71-18.1,1.84-.08,3.55-.4,4.29-2.42,2.03-.26,4.1-.94,5.91,.68,.06,1.21,.69,1.84,1.9,1.87,2.52,9.54,11.77,7.08,18.01,9.73,4,1.7,8.71,1.91,13.04,3.15,6.74,1.94,13.47,.97,20.26-.2,6.38-1.1,12.85-1.87,19.04,1.4,3.57,1.88,5.17,4.11,2.63,7.89-2.26,.39-3.57,1.7-3.85,4-.51,.4-1.01,.81-1.52,1.21-3.86,.65-7.36,2.12-10.51,4.45l-2.04,.12c-2.44-1.63-5.18-.8-7.73-.71-13.67,.44-27.12,.12-39.69-6.55-2.27-1.21-5.46-2.79-8.44-.69-.67-.07-1.34-.14-2.02-.21-3.89-2.11-8.47-2.75-12-5.61Zm35.95,7.21c1.3,2.01,2.74,3.52,5.12,1.3,9.98,.7,19.9-.72,29.87-.72,3.21,0,6.13-1.36,8.65-3.31,2.06-1.59,1.87-3.04-.76-3.81-2.61-.77-5.28-.66-7.9-.13-11.21,2.29-22.15,2.25-33.4-.95-6.28-1.79-12.63-4.25-19.3-4.49-4.61-.16-7.93-1.08-7.68-6.61,.04-.95-.2-2.18-1.49-2.16-.73,0-1.7,.46-2.12,1.03-1.84,2.53-2.37,5.47-1.89,8.52,.47,3.04,3.08,3.13,5.35,3.44,8.96,1.19,17.57,3.5,25.54,7.88Z"/><path class="o" d="M672.09,548.24c5.21-.79,9.39,.26,13.99-3.38-3.84,12.08-7.22,22.74-10.62,33.46,2.55,.61,2.74-1.15,3.44-2.07,1.92-2.54,3.89-4.98,6.8-6.45,4.11-2.07,7.12-.9,8.57,3.42,.41,1.24,.7,2.58,.69,3.88-.07,11.96-3.94,22.48-12.39,31.07-5.41,5.5-12.91,6.3-19.72,2.83-2.77-1.41-1.65-3.02-1.04-4.9,5.29-16.24,10.54-32.48,15.8-48.73q2.09-6.44-5.51-9.12Zm18.09,32.38c-.33-2.73,.99-6.17-1.89-7.42-3.28-1.43-5.32,1.7-7.41,3.76-.12,.12-.23,.24-.33,.37-6.97,8.48-10.79,18.5-14.17,28.76-.7,2.12,.47,2.6,1.93,3.22,4.23,1.81,8.61,.62,12.34-3.78,6.1-7.22,8.76-15.8,9.54-24.9Zm-14.16-.16c-.19-.39-.32-.65-.45-.91l-1.22,.67c.15,.22,.31,.64,.43,.63,.41-.05,.81-.24,1.24-.39Z"/><path class="o" d="M556.34,370.76h-15.18c5.9-1.68,4.76-6.37,4.77-10.48,.03-6.83,.06-13.65-.01-20.48-.04-3.75-.11-7.7-5.23-8.11-4.41-.35-9.95,4.35-10.01,8.52-.11,7.66,.04,15.32-.05,22.97-.04,3.51,.55,6.35,4.82,7.3h-14.27c5.51-1.3,4.88-5.58,4.87-9.66-.06-15.32-.09-30.63-.02-45.95,.02-3.38,.03-6.3-5.18-4.62,2.24-2.68,5.07-3.6,7.7-4.45,2.81-.91,2.05,1.68,2.06,3.03,.07,8.28,.03,16.56,.03,25.64,2.12-1.93,3.55-3.45,5.2-4.69,2.8-2.11,6.04-3.08,9.37-1.73,3.45,1.39,4.78,4.47,4.83,8.04,.12,8.32,.15,16.64,.21,24.97q.04,6.54,6.09,9.68Z"/><path class="m" d="M357.53,550.95c-.47-1-.55-1.97,.16-2.9,1.21-.37,1.4-1.26,1.21-2.35,3.71-4.74,9.04-6.97,14.59-7.53,13.48-1.35,26.08-5.77,38.83-9.79,1.85-.58,3.68-1.58,5.75-1.24,1.55,1.46,3.47,.67,5.23,.84,2.29,.22,4.75-.59,6.84,.68,2,1.21,5.76,1.94,2.46,5.59-6.39-1.96-12.64-1.56-19.01,.51-12.58,4.08-25,8.72-38.43,9.65-3.51,.24-7.23,1.47-10.99,5.29,9.59-.83,17.75-1.54,25.92-2.25-.35,1.51-.71,3.02-1.06,4.53-.94,.08-1.78,.31-2.07,1.37-1.62,.62-3.3,.64-4.99,.41-2.16-1.06-4.26-1.66-5.97,.77-.68,.07-1.36,.14-2.04,.21-4.61-1.53-9.35-.38-14.02-.69-.33-.27-.67-.54-1-.81,.17-1.15-.08-2.04-1.4-2.28Z"/><path class="o" d="M514.12,604.24c-1.33,2.78-3.49,4.87-5.92,6.61-5.06,3.63-9.66,1.71-10.36-4.45-1.14-9.98,2.85-18.52,8.15-26.56,2.39-3.63,5.27-6.89,9.03-9.19,5.79-3.55,9.94-2.22,12.85,4.43,1.77-2.83,3.35-5.68,7.45-6.12-3.95,10.93-7.91,21.6-11.63,32.35-.84,2.42-3.71,5.91-.71,7.44,3.11,1.59,4.86-2.48,6.54-4.84,1.39-1.96,2.53-4.09,4.24-5.84-1.58,5.45-4.18,10.23-9.12,13.37-1.95,1.24-4.27,1.51-6.15,.18-2.06-1.46-1.73-3.77-.93-5.93,1.1-2.96,2.2-5.92,3.28-8.86,.61-1.91-.74-1.82-1.95-1.87,2-4.7,4.73-9.1,5.56-14.27,.48-2.99,1.39-6.41-1.6-8.22-3.25-1.97-6.1,.45-8.36,2.65-6.25,6.09-9.84,13.69-11.47,22.16-.72,3.76-2.74,8.83,1.39,10.93,3.61,1.84,5.98-3.02,8.74-5.18,.33,.4,.65,.81,.98,1.21Z"/><path class="o" d="M389.01,551.98c.35-1.51,.71-3.02,1.06-4.53,1.95-.35,3.92-.66,5.86-1.07,7.78-1.66,15.63-2.95,23.11-5.92,6.63-2.63,13.36-.68,20.01,.5-.04,.62,.33,.82,.86,.79,.12,0,.23-.19,.34-.29l-1.26-.43-6.4-6.77c3.31-3.65-.45-4.38-2.46-5.59-2.09-1.26-4.55-.46-6.84-.68-1.76-.17-3.68,.62-5.23-.84,13.05-3.32,23.39,4.79,29.94,12.38,1.64,1.9,1.43,4.35,.33,6.59-1.17,2.36-3.22,3.35-5.74,3.05-1.95-.23-3.98-.58-5.76-1.36-6.82-2.97-13.5-2.61-20.21,.26-2.12,.9-4.29,1.76-6.67,1.74-1.14-1.16-2.14-1.12-2.97,.35-1.01,.2-2.03,.4-3.04,.61-.94-1.12-1.52-.66-1.96,.44-.69,.17-1.37,.34-2.06,.52-1.82-.89-3.64-1.71-4.94,.77-1.01,.11-2.02,.22-3.03,.33-.76-1.05-1.91-.75-2.95-.83Z"/><path class="o" d="M584.68,353.43c-.27,6.53-1.55,11.84-5.67,15.99-4.37,4.4-11.26,3.69-15.34-1.3-6.68-8.19-6.29-28.64,.71-36.72,4.83-5.58,12.4-5.1,16.47,1.08,.73,1.1,1.34,2.3,1.81,3.54,3.73,9.83,2.56,11.58-7.67,11.58-1.16,0-2.33,0-3.49,0q-8.81,0-7.31,8.78c1.2,7.03,4.67,11.53,8.99,11.69,4.21,.15,6.95-3.02,9.16-10.29,.37-1.2,.14-2.7,2.33-4.35Zm-13.32-8.58c9.31,0,9.49-.23,7.14-8.26-.93-3.19-2.3-6.2-6.04-6.27-3.6-.07-5.38,2.62-6.63,5.76-3.31,8.34-3.08,8.77,5.52,8.77Z"/><path class="o" d="M443.15,582.71c-.9,10.25-4.84,19.68-13.46,26.69-3.56,2.89-7.72,4.94-12.43,2.83-4.8-2.16-5.8-6.75-5.7-11.31,.25-10.92,4.19-20.4,12.37-27.83,3.86-3.5,8.42-5.9,13.6-3.44,5.08,2.41,5.47,7.48,5.61,13.07Zm-4.77-1.51c-.37-3.37,.2-7.58-4.11-9.15-4.41-1.61-7.22,1.48-9.59,4.53-5.69,7.33-8.38,15.79-8.48,25.01-.03,3.18,.38,6.68,3.79,8.07,3.59,1.47,6.46-.63,8.75-3.22,6.32-7.13,9.19-15.63,9.64-25.25Z"/><path class="o" d="M517.57,354.23c.49,4.88,0,9.67-2.15,14.2-1.48,3.11-4.2,3.98-7.46,3.77-3.07-.19-4.82-1.96-5.87-4.62-1.25-3.17-1.21-6.51-1.22-9.83-.01-7.15-.12-14.3,.05-21.44,.07-3.05-.11-5.33-4.06-4.71-.82,.13-1.73-.02-1.74-1.16,0-.42,.28-1.18,.52-1.22,6.64-1.1,6.57-6.94,8.12-12.36,2.32,2.62,1.49,5.19,1.35,7.34-.25,3.66,.82,5.33,4.66,4.7,.97-.16,1.99-.06,2.99-.01,.91,.04,2.12-.34,2.24,1.16,.12,1.39-.85,1.5-1.92,1.6-2.44,.23-5.73-1.17-7.15,.71-1.73,2.29-.63,5.74-.6,8.68,.07,7.14-.5,14.29,.51,21.41,.38,2.69,.55,5.66,4.12,5.81,3.7,.16,4.52-2.83,5.08-5.66,.56-2.84,.87-5.74,1.29-8.61l1.25,.24Z"/><path class="o" d="M470.87,596.06c-3.05,7.19-6.15,13.21-12.98,16.21-4.85,2.13-9.13-.2-10.8-5.5-3.59-11.39,5.22-31.7,16.12-36.93,3.52-1.69,7.12-2.24,9.72,1.6,1.98,2.91,.65,9.28-2.17,11.44-.97,.74-2,1.32-3.12,.33-1.01-.89-1.01-2.07-.5-3.19,.26-.57,.84-1,1.3-1.48,1.59-1.69,3.83-3.52,1.82-5.92-2.18-2.6-4.91-1.28-7.14,.32-6.49,4.67-8.86,11.81-10.82,19.05-.86,3.17-1.52,6.51-1.08,9.86,.36,2.77,.46,5.92,3.67,7.04,3.06,1.08,5.54-.58,7.5-2.75,1.77-1.96,3.21-4.2,4.85-6.28,.88-1.12,1.07-2.79,3.64-3.81Z"/><path class="o" d="M596.96,596.67c-1.72,5.87-4.65,10.97-9.76,14.42-5.9,3.98-11.65,1.67-13.33-5.16-2.78-11.34,5.14-29.83,15.3-35.58,3.55-2.01,7.24-2.99,10.4,.54,2.34,2.61,1.43,8.74-1.4,11.5-.97,.95-2.04,1.99-3.42,.87-1.42-1.16-1.2-2.59-.17-3.95,.1-.13,.24-.23,.36-.35,1.72-1.9,4.75-3.84,2.02-6.57-2.73-2.73-5.87-.73-7.93,1.35-8.31,8.41-11.69,18.78-10.39,30.41,.59,5.27,4.8,6.6,9.14,3.42,3.94-2.88,6.03-7.31,9.18-10.91Z"/><path class="o" d="M610.95,608.9c-.86,1.54-2.33,2.39-3.85,2.98-4.47,1.74-7.51-.62-6.41-5.27,1.25-5.31,3.04-10.5,4.7-15.71,3.51-11.06,7.1-22.09,10.65-33.14q2.18-6.81-4.46-9.29c4.31-1.22,8.57-.26,13.06-3.49-.94,3.2-1.48,5.19-2.11,7.15-5.58,17.35-11.18,34.7-16.76,52.06-.49,1.53-1.54,3.3,.07,4.59,1.39,1.11,2.79-.2,4.1-.82l1.02,.94Z"/><path class="o" d="M546.96,608.9c-.86,1.54-2.33,2.39-3.85,2.98-4.47,1.74-7.51-.62-6.41-5.27,1.25-5.31,3.04-10.5,4.7-15.71,3.51-11.06,7.1-22.09,10.65-33.14q2.18-6.81-4.46-9.29c4.31-1.22,8.57-.26,13.06-3.49-.94,3.2-1.48,5.19-2.11,7.15-5.58,17.35-11.18,34.7-16.76,52.06-.49,1.53-1.54,3.3,.07,4.59,1.39,1.11,2.79-.2,4.1-.82l1.02,.94Z"/><path class="o" d="M401.12,601.97c.11-1.74-1.22-4.07-2.48-6.41-1.96-3.65-4.19-7.19-5.87-10.96-1.81-4.07-1.48-8.25,1.53-11.71,3.05-3.5,7.04-4.84,11.7-3.95,2.44,.47,4.37,1.71,5.54,3.84,.8,1.45,1.41,3.24-.67,4.27-1.94,.97-2.64-.48-3.23-1.96-1.49-3.77-4.33-5.17-7.97-3.62-4.24,1.81-4.56,5.84-3.2,9.37,1.85,4.77,4.62,9.18,7.02,13.73,2.55,4.83,2.67,9.56-.7,14.05-4.46,5.94-14.92,5.74-18.47-.38-1.07-1.85-2.33-4.34,.38-5.63,2.58-1.23,2.7,1.65,3.38,3.1,1.67,3.6,4.15,5.57,8.28,4.54,3.77-.94,4.71-3.79,4.77-8.29Z"/><path class="o" d="M646.71,587.91c1.94-5.46,4.9-10.56,5.98-16.31,.57-3.04,2.89-1.78,4.34-1.67,3.04,.24,.91,2.38,.61,3.27-3.44,10.39-7.11,20.71-10.59,31.09-.57,1.7-2.38,4.03,.18,5.28,2.13,1.03,3.67-1.14,4.82-2.66,2.04-2.72,3.78-5.66,6.07-8.22-1.66,5.51-4.22,10.42-9.4,13.53-1.83,1.1-3.85,1.34-5.65,.12-1.97-1.33-1.61-3.35-1.27-5.41,.52-3.18,3.01-5.85,2.37-9.31l-.11-.11c1.4-.45,2.08-1.18,.99-2.58l-.08,.14c1.77,.23,1.17-1.35,1.63-2.12,.74-1.66,3.87-3.25,.14-5.03Z"/><path class="o" d="M634.01,609.04c-.71,1.43-2.09,2.11-3.36,2.83-2.09,1.18-4.35,1.86-6.55,.28-2.21-1.58-2.27-3.92-1.77-6.29,1.24-5.87,3.8-11.27,6.2-16.72,2-4.54,3.81-9.16,5.72-13.74,.91-2.17,.72-3.6-2.14-3.35-.36-.32-.73-.64-1.09-.97,1.94-1.78,4.37-3.24,6.67-1.63,2.62,1.84,1.57,4.78,.55,7.27-2.99,7.36-6.07,14.68-9.07,22.04-.62,1.53-1.02,3.15-1.51,4.73-.54,1.73-1.48,3.73,.09,5.13,1.65,1.47,3.4-.14,5.06-.73,.4,.38,.8,.77,1.2,1.15Z"/><path class="o" d="M485.06,571.14c1.97-1.73,4.4-3.28,6.7-1.62,2.55,1.84,1.52,4.83,.65,7.36-3.16,9.27-6.35,18.53-9.58,27.77-1.03,2.93-1.19,5.07,2.99,4.24,.39,.35,.78,.7,1.16,1.05-2.29,2.46-5.22,3.48-7.96,1.54-2.6-1.85-1.34-4.84-.5-7.34,3.16-9.39,6.41-18.76,9.6-28.15,.65-1.91,1.7-4.09-1.93-3.92-.38-.32-.76-.63-1.14-.95Z"/><path class="j" d="M189.12,560.8c2.99-2.1,6.17-.51,8.44,.69,12.57,6.68,26.02,6.99,39.69,6.55,2.56-.08,5.29-.91,7.73,.71-8.13,.35-16.27,.83-24.41,1-4.69,.1-9.3-.88-13.58-2.87-5.75-2.67-11.66-4.81-17.88-6.09Z"/><path class="j" d="M634.01,609.04c-.4-.38-.8-.77-1.2-1.15,6.09-5.65,9.67-13.05,13.9-19.99,3.73,1.78,.61,3.37-.14,5.03-1.77-.24-1.65,.98-1.63,2.12l.08-.14c-.99,.61-2.21,1.13-.99,2.58l.11,.11c-3.3,.61-3.31,4.1-5.19,5.98-1.73,1.73-2.72,4.16-4.95,5.45Z"/><path class="o" d="M495.15,551.44c2.25,.21,3.77,1.3,3.77,3.67,0,2.52-1.38,3.95-3.98,3.91-2.35-.03-3.71-1.41-3.8-3.64-.11-2.6,1.57-3.76,4.02-3.95Z"/><path class="j" d="M310.07,376.44c-.22,1.18-1.1,1.38-2.12,1.64-5.42,1.36-10.62,3.22-15.22,6.53-1.65,1.18-3.54,1.65-5.58,1.46,7.17-4.33,14.37-8.6,22.92-9.63Z"/><path class="j" d="M758.01,558.81c6.04-1.06,12.09-2.18,17.89,1.01-6.06,1.45-11.96-.12-17.89-1.01Z"/><path class="j" d="M779.92,559.58c.33-2.7,2.95-3.29,4.46-3.06,3.54,.54,7.03-.45,10.5,.24-4.81,1.9-9.85,2.51-14.96,2.82Z"/><path class="j" d="M486.99,609.95c-.39-.35-.78-.7-1.16-1.05,3.68-2.97,5.26-7.58,8.49-10.93-1.3,4.72-3.37,8.93-7.33,11.99Z"/><path class="j" d="M546.96,608.9l-1.02-.94c2.3-3.41,4.6-6.82,6.9-10.22-.59,4.55-2.73,8.15-5.88,11.17Z"/><path class="j" d="M610.95,608.9l-1.02-.94c2.3-3.41,4.6-6.82,6.9-10.22-.59,4.55-2.73,8.15-5.88,11.17Z"/><path class="j" d="M286.07,386.48c-3.13,3.91-7.47,6.17-11.7,8.57,2.5-4.77,7.2-6.54,11.7-8.57Z"/><path class="j" d="M631.02,571.09c.36,.32,.73,.64,1.09,.97-3.44,2.76-5.85,6.47-8.76,9.74,1.29-4.52,3.8-8.11,7.67-10.71Z"/><path class="j" d="M485.06,571.14c.38,.32,.76,.63,1.14,.95-3.52,2.73-5.8,6.58-8.85,9.78,1.3-4.52,3.87-8.08,7.71-10.72Z"/><path class="j" d="M514.12,604.24c-.33-.4-.65-.81-.98-1.21,1.91-2.69,3.83-5.38,5.74-8.07,1.21,.05,2.57-.04,1.95,1.87-3.76,1.07-4.04,5.33-6.72,7.42Z"/><path class="j" d="M359.93,554.04c4.67,.31,9.41-.84,14.02,.69-4.73,.89-9.49,2.5-14.02-.69Z"/><path class="j" d="M175.09,554.98c3.54,2.86,8.11,3.51,12,5.61-4.72-.33-9.45-.65-12-5.61Z"/><path class="j" d="M247.02,568.64c3.15-2.32,6.65-3.8,10.51-4.45-2.92,2.86-6.4,4.41-10.51,4.45Z"/><path class="j" d="M343,372.16c-2.96,1.35-5.93,1.32-8.9,.04,2.97-.58,5.93-.56,8.9-.04Z"/><path class="j" d="M797.92,555.62c1.51-2.76,4.15-3.38,6.97-3.65-1.83,2.15-4.29,3.11-6.97,3.65Z"/><path class="j" d="M375.99,554.53c1.71-2.44,3.81-1.84,5.97-.77-1.99,.26-3.98,.52-5.97,.77Z"/><path class="j" d="M750.03,557.73c2.15-.75,4.37-1.97,5.96,.93-2.1,.4-4.02-.32-5.96-.93Z"/><path class="j" d="M806.92,550.69c.5-3.03,2.81-2.73,4.98-2.71-1.31,1.54-3.1,2.2-4.98,2.71Z"/><path class="j" d="M395,552.48c1.3-2.48,3.11-1.65,4.94-.77-1.6,.57-3.21,1.04-4.94,.77Z"/><path class="j" d="M389.01,551.98c1.04,.08,2.19-.22,2.95,.83-1.65,.43-3.27,1.04-5.02,.53,.29-1.06,1.13-1.28,2.07-1.37Z"/><path class="j" d="M259.05,562.98c.28-2.3,1.59-3.61,3.85-4-.61,1.98-2,3.21-3.85,4Z"/><path class="j" d="M182.1,534.46c-.75,2.02-2.45,2.34-4.29,2.42,.76-2,2.09-2.99,4.29-2.42Z"/><path class="j" d="M354,374.05c-1.39-.05-2.98,.71-3.99-.94,1.51-.45,2.74,.27,3.99,.94Z"/><path class="j" d="M950.27,379.88c-1.93,.03-3.65-.31-4.39-2.43,1.64,.49,3.25,1.02,4.39,2.43Z"/><path class="j" d="M957.06,383.97c-1.87-.17-3.65-.48-4.16-2.73,1.66,.5,3.21,1.14,4.16,2.73Z"/><path class="j" d="M740.22,551.97c1.81,.21,2.68,1.25,2.73,3.03-1.52-.46-2.39-1.51-2.73-3.03Z"/><path class="j" d="M273.99,395.89c0,1.4,.51,2.89-.73,4.06-.83-1.55-.55-2.9,.73-4.06Z"/><path class="j" d="M406.99,550.15c.83-1.48,1.83-1.51,2.97-.35-.99,.12-1.98,.23-2.97,.35Z"/><path class="j" d="M321.08,374.76c-.74,1.59-1.75,1.66-2.96,.5,.99-.17,1.97-.34,2.96-.5Z"/><path class="j" d="M316.07,375.61c-.73,1.79-1.75,1.82-3,.51,.93-.6,1.9-.92,3-.51Z"/><path class="j" d="M331.07,372.61c-.69,1.75-1.71,1.82-2.98,.58,.99-.19,1.99-.39,2.98-.58Z"/><path class="j" d="M357.53,550.95c1.31,.24,1.57,1.13,1.4,2.28-1.07-.39-1.4-1.23-1.4-2.28Z"/><path class="j" d="M401.99,551.2c.44-1.1,1.02-1.56,1.96-.44-.65,.15-1.3,.3-1.96,.44Z"/><path class="j" d="M326.07,373.55c-.36,1.26-.9,1.89-2,.58,.67-.19,1.33-.38,2-.58Z"/><path class="j" d="M358.9,545.7c.2,1.09,0,1.98-1.21,2.35-.03-1.01,.19-1.89,1.21-2.35Z"/><path class="j" d="M189.92,537.01c-1.22-.03-1.84-.67-1.9-1.87,1.1,.15,1.72,.79,1.9,1.87Z"/><path class="j" d="M960.09,394.41c-.2-1.13-.06-2.08,1.26-2.43,.1,1.08-.3,1.89-1.26,2.43Z"/><path class="g" d="M850.49,414.98c-.52,.92-.77,1.74-1.31,2.27-8.21,8.05-10.86,18.63-14.24,29.16-4.95,15.42-8.31,31.52-17.68,45.31-10.79,15.88-25.47,24.93-44.61,26.52-11.8,.98-22.15-9.23-21.87-20.94,.35-14.63,5.59-27.98,11-41.14,3.36-8.17,4.61-15.82,1.44-24.1-1.14-2.99-1.72-6.1-.89-9.29,1.12-4.31,4.74-5.81,8.44-3.53,4.09,2.52,6.32,7.43,4.97,12.05-3.35,11.47-6.88,22.89-10.43,34.3-3.29,10.57-5.15,21.33-4.39,32.42,.71,10.39,10.11,17.33,20.28,15.2,12.57-2.63,22.99-8.13,29.35-20.09,5.08-9.56,10.18-19.01,13.01-29.57,2.39-8.93,7.43-17.16,6.84-26.86-.22-3.65-.35-7.31-.3-10.96,.11-7.46,2.57-10.14,9.88-11,3.4-.4,6.83-1.22,10.51,.24Z"/><path class="b" d="M467.89,434.78c-.64,8.87-3.99,17.06-6.69,25.38-2.26,6.95-5.42,13.63-6.93,20.81-2.68,12.74-.03,20.05,8.34,24.09,11.94,5.76,22.85,4.09,30.7-5.52,11.58-14.19,19.68-30.35,25.55-47.67,3.66-10.82,6.12-22.19,13.99-31.17,2.66-3.03,5.29-3.72,8.65-1.32,1.66,1.18,2.39,2.45,1.96,4.63-.71,3.63-1.81,7.11-3.53,10.35-6.98,13.07-12.87,26.6-18.24,40.43-4.99,12.84-13.06,24.13-22.98,33.52-8.5,8.05-19.32,11.57-31.37,9.12-2.12-.43-4.23-.9-6.34-1.36-12.5-2.73-18.74-12.39-16.57-25.1,1.43-8.41,3.82-16.56,6.7-24.5,3.64-10.03,5.43-20.17,4.83-30.81-.29-5.21,.82-10.26,3.03-15.02,1.05-2.27,2.5-4.07,5.33-3.44,2.79,.62,2.72,2.95,2.83,5.15,.21,4.15,.48,8.3,.73,12.45Z"/><path class="f" d="M935.43,444.01c-3.22-1.77-4.49-4.49-5.85-7.12-4.22-8.18-10.76-13.93-19.31-16.94-10.46-3.68-18.32,2.09-18.53,13.11-.08,4.33-.09,8.66,.13,12.98,.27,5.27,1.96,9.97,5.41,14.17,8.71,10.58,14.73,22.6,17.01,36.14,1.68,10.02-4.84,20.39-12.94,26.25-9.58,6.92-18.78,3.25-28.02,.42-6.47-1.98-13.03-4.31-17.64-9.83-3.75-4.48-6.44-9.34-5.31-15.48,.46-2.5,1.61-3.12,3.62-1.14,1.95,1.91,3.12,4.24,4.19,6.71,4.47,10.26,15.58,18.45,25.05,17.69,9.52-.76,17.22-5.91,23.74-12.52,3.33-3.38,2.16-7.79,.37-11.74-4.62-10.16-10.14-19.82-16.18-29.22-9.31-14.49-9.91-29.91-4.62-45.93,1.54-4.66,4.5-7.3,9.21-8.89,12.04-4.07,22.85-.06,32.85,5.54,8.07,4.52,10.21,15.21,6.81,25.8Z"/><path class="q" d="M220.25,529.01c2.46-11.25,9.25-19.15,15.61-27.15,10.76-13.54,21.87-26.8,32.91-40.12,5.79-6.99,9.42-15.27,13.92-23.03,5.64-9.73,13.37-17.34,22.95-23.12,3.78-2.28,6.03-1.42,7.67,2.69,2.1,5.27,2.19,10.86,1.5,16.26-2.9,22.78-3.07,45.74-4.89,68.59-.21,2.64-.65,5.28-1.16,7.88-1.38,7.1-9.63,13.58-16.92,13.49-2.61-.03-1.88-1.88-1.79-3.16,.32-4.67,1.48-9.23,3.21-13.53,4.49-11.13,5.58-22.87,6.64-34.61,.79-8.78-3.86-12.19-12.05-8.98-12.18,4.77-20.82,13.91-29.08,23.66-8.92,10.53-18.3,20.65-26.32,31.95-2.83,3.98-6.38,7.67-12.2,9.19Zm89.67-87c-.13-5.49-4.77-11.7-9.53-13.35-1.37-.47-2.61-.61-3.71,.38-5.45,4.9-10.66,10.03-13.22,17.12-1.45,4.02,.38,7.19,4.52,8.35,4.9,1.37,17.53-3.13,20.27-7.3,1.11-1.68,1.6-3.61,1.68-5.21Z"/><path class="p" d="M200.79,446.08c7.22-.25,19.45,6.95,21.48,12.66,.74,2.09,1.58,4.37-.85,5.79-2.41,1.4-3.03-1.33-4.18-2.43-5.98-5.78-11.81-6.43-18.94-2.05-11.95,7.34-19.68,18.01-25.16,30.73-5.41,12.56-13.54,23.57-21.08,34.89-1.16,1.73-3.03,3.65-5.39,1.81-2.07-1.61-2.44-4.12-.94-6.28,2.08-3,4.49-5.77,6.84-8.57,12.16-14.42,22.05-30.08,24.99-49.08,1.14-7.36,.92-14.93,1.25-22.4,.21-4.72,1.25-9.23,3.31-13.46,2.39-4.91,5.45-8.93,11.47-10.05,3.17-.59,6.16-2.4,9.12-3.89,10.46-5.3,22.1-5.76,33.25-8.18,4.71-1.02,7.79,1.67,9.59,5.46,1.72,3.64,0,6.98-2.98,9.22-7.46,5.62-15.99,7.98-25.27,7.04-6.22-.63-12.27-.53-18.13,1.89-2.72,1.13-4.82,2.9-6,5.66-3.13,7.34-.31,11.51,7.62,11.24Z"/><path class="c" d="M619.07,496.16c.52,7.58-.31,14.97-3.78,21.92-1.49,2.98-4.56,3.15-7.41,2.99-6.64-.38-13.26-.99-19.89-1.43-11.8-.77-23.61-.67-35.42-.69-2.4,0-5.73,1.17-6.93-1.2-1.11-2.19,1.43-4.45,2.69-6.56,9.6-16.12,18.58-32.57,24.84-50.31,3.82-10.83,6.95-21.76,5.13-33.6-.86-5.59,3.74-10.31,9.42-11.15,3.68-.55,7.37-1.82,11.46,.69-11.97,8.71-14.54,21.33-15.33,34.78-.8,13.75-6.38,25.58-15.07,36.1-2.11,2.56-3.66,5.51-4.91,8.64-3.12,7.82,1.06,15.16,9.54,15.68,16.47,1.01,31.96-1.26,43.34-15.1,.3-.37,.76-.6,1.18-.86,.1-.06,.3,.02,1.15,.09Z"/><path class="h" d="M401.92,415.01c5.29-.26,9.98,.53,14.43,2.69,4.81,2.34,9.25,5.28,9.68,11.06,.48,6.57-2.22,12.03-7.96,15.6-3.09,1.92-6.55,3.3-9.54,5.34-10.3,7.03-10.33,14.87-.26,22.01,1.49,1.06,2.86,2.38,4.49,3.13,11.22,5.17,8.93,14.86,4.01,23.66-2.69,4.82-7.39,7.97-12.35,10.58-15.26,8.03-31.6,11.92-48.71,12.94-4.98,.3-9.96,.84-14.93,.72-5-.12-5.73-1.51-4.5-6.31,2.01-7.82,7.02-14.29,9.73-21.8,7.37-20.39,12.45-41.28,14.07-62.96,.13-1.81,.67-3.59,1.07-5.37,.73-3.23,2.38-5.45,6.07-5.21,8.18,.53,15.5-3.24,23.28-4.71,3.93-.74,7.78-1.78,11.42-1.37Zm7.3,70.7c-.09-1.01-.09-2.19-.33-3.32-1.71-8.27-19.57-18.96-27.81-16.91-11.07,2.76-17.89,9.63-20.68,20.57-1.19,4.68-2.64,9.23-4.74,13.59-1.68,3.5-4.54,7.13-1.51,11.06,3.01,3.91,7.48,2.71,11.57,2.27,.97-.1,1.92-.49,2.88-.76,10.7-3.13,20.87-7.63,30.94-12.32,5.8-2.7,9.24-7.42,9.68-14.19Zm-31.84-34.49c11.88-1.22,24.11-8.3,37.09-13.05,2.98-1.09,4.28-4.1,3.69-7.46-.56-3.11-2.66-4.85-5.54-5.76-4.87-1.52-9.75-1.49-14.75-.47-5.02,1.02-9.69,3.74-14.96,3.39-5.13-.35-9.39,1.57-13.41,4.39-5.1,3.58-7.35,8.53-5.82,13.1,1.89,5.66,6.7,5.64,13.71,5.86Z"/><path class="i" d="M690.06,417.56c7.46,1.44,16.24,.46,22.6,6.56,9.42,9.04,17.47,18.9,14.37,33.5-1.07,5.03-1.12,10.33-2.6,15.22-4.35,14.37-12.8,26.1-24.45,35.53-.77,.63-1.69,1.08-2.45,1.72-5.46,4.51-11.04,8.64-18.77,7.7-11.03-1.35-21.06-4.86-28.88-13.16-3.43-3.64-5.33-8.14-5.65-13.04-1.04-15.76-.05-31.35,6.96-45.83,4.33-8.93,10.88-16.37,18.56-22.61,5.68-4.62,12.82-5.14,20.31-5.58Zm-39.03,63.07c0,2.83-.03,5.66,0,8.49,.27,18.81,25.21,26.29,36.2,18.91,12.58-8.45,21.62-19.64,28.42-32.76,2.32-4.47,3.78-9.55,4.51-14.71,1.92-13.51-5.38-22.6-15.01-30.11-14.31-11.16-24.23-10.79-37.51,3.56-11.65,12.58-18.4,28.48-16.62,46.62Z"/><path class="p" d="M700.96,392.59c-12.35,.76-24.29,4.09-36.01,7.5-11.02,3.21-21.96,7.54-27.41,19.52-2.64,5.8-7.01,10.67-13.9,13.85,2.06-6.4,5.94-11.1,7.69-16.78,2.01-6.53,.82-11.38-4.43-14.92-1.62-1.09-3.59-1.67-5.43-2.41-1.67-.66-3.4-1.21-5.79-2.05,3.73-2.67,7.48-3.03,11.09-3.27,4.13-.28,8.31-.06,12.45,.2,14.72,.91,29.16-1.36,43.62-3.64,6.16-.97,12.2-.56,18.12,2Z"/><path class="c" d="M307.03,382.95c7.03-1.26,14.21-1.68,21.03-4.03l.96-.12c6.3-.98,12.58-.91,18.87,.08,10.72,1.69,21.22-.21,31.67-2.33,9.06-1.84,17.31,.03,25.77,4.71-2.03,1.21-3.58,1.28-5.18,1.29-13.36,.07-26.52,1.76-39.45,5.15-2.46,.65-4.94,.35-7.41-.19-8.09-1.77-16.07-1.09-24.25,.19-16.27,2.55-32.08,6.97-48.08,10.62-.91-1.53,.86-2.13,1.12-3.25l1.98-1.19,1.2-.74c1.59-.8,3.18-1.6,4.77-2.4,1.9-.46,3.62-1.24,5.01-2.66,3.34-1.47,6.69-2.95,10.03-4.42,.37-.17,.74-.33,1.11-.5l-.06,.04,.49,.05,.4-.29Z"/><path class="j" d="M282.09,395.07c-.26,1.12-2.03,1.73-1.12,3.25-1.15,.88-1.82,.34-1.77-.85,.07-1.71,1.26-2.4,2.89-2.4Z"/><path class="j" d="M295.05,388.08c-1.38,1.43-3.11,2.2-5.01,2.66,1.05-2.06,2.51-3.33,5.01-2.66Z"/><path class="j" d="M329.02,378.8l-.96,.12c.26-.51,.57-.61,.96-.12Z"/><path class="j" d="M307.03,382.95l-.4,.29-.49-.05c.12-.7,.37-.95,.89-.25Z"/><path class="j" d="M306.2,383.16c-.37,.17-.74,.33-1.11,.5,.37-.17,.74-.33,1.11-.5Z"/><path class="j" d="M285.27,393.14l-1.2,.74c.4-.25,.8-.49,1.2-.74Z"/><path class="b" d="M953.28,389.96c-7.49-2.12-15.08-3.93-22.43-6.42-14.83-5.02-29.28-1.96-43.71,1.58-3.4,.83-6.7,2.02-10.26,1.78-2.74-.18-4.86-1.26-5.16-4.33-.31-3.16,2.32-2.8,4.2-3.7,5.62-2.68,11.49-1,17.21-1.33,14.04-.82,28.2-3.34,41.97,2.14,6.46,2.57,12.94,5.01,18.19,10.27Z"/><path class="q" d="M828.97,528.03c-1.18,3.63-3.53,6.35-6.84,8.13-8.88,4.76-17.56,10.03-26.81,13.93-11.17,4.71-23.11,5.63-35.1,3.24-4.43-.88-9.35,.77-14.12-2.98,7.93-2.52,15.57-4.1,23.08-3.12,15.68,2.03,29.32-3.31,42.88-9.84,5.81-2.8,11.34-6.07,16.85-9.4l.05,.05Z"/><path class="q" d="M828.93,527.98c.06-.14,.09-.3,.18-.4,.06-.06,.22-.03,.33-.04-.16,.16-.31,.32-.47,.48l-.05-.05Z"/><path class="i" d="M211.05,562.19c-7.97-4.38-16.58-6.69-25.54-7.88-2.27-.3-4.88-.4-5.35-3.44-.47-3.05,.06-5.98,1.89-8.52,.42-.57,1.39-1.02,2.12-1.03,1.29-.02,1.53,1.21,1.49,2.16-.24,5.53,3.07,6.45,7.68,6.61,6.67,.23,13.02,2.7,19.3,4.49,11.24,3.2,22.18,3.24,33.4,.95,2.62-.53,5.29-.64,7.9,.13,2.63,.77,2.82,2.22,.76,3.81-2.52,1.95-5.44,3.31-8.65,3.31-9.96,0-19.89,1.42-29.87,.72-1.71-.43-3.41-.87-5.12-1.31Z"/><path class="j" d="M211.05,562.19c1.71,.44,3.41,.87,5.12,1.31-2.38,2.21-3.81,.7-5.12-1.31Z"/><path class="e" d="M690.17,580.62c-.78,9.1-3.44,17.69-9.54,24.9-3.72,4.4-8.1,5.59-12.34,3.78-1.46-.62-2.62-1.1-1.93-3.22,3.38-10.26,7.2-20.28,14.17-28.76,.11-.13,.21-.26,.33-.37,2.1-2.07,4.14-5.19,7.41-3.76,2.88,1.25,1.56,4.69,1.89,7.42Z"/><path class="d" d="M676.01,580.46c-.43,.15-.83,.35-1.24,.39-.12,.01-.29-.41-.43-.63,.41-.22,.81-.45,1.22-.67,.13,.26,.25,.51,.45,.91Z"/><path class="f" d="M432.59,534.25l6.4,6.77,.06-.07c-6.65-1.18-13.38-3.14-20.01-.5-7.48,2.97-15.33,4.26-23.11,5.92-1.94,.41-3.9,.72-5.86,1.07-8.16,.71-16.33,1.42-25.92,2.25,3.76-3.83,7.48-5.05,10.99-5.29,13.43-.92,25.85-5.57,38.43-9.65,6.37-2.06,12.62-2.47,19.01-.51Z"/><path class="e" d="M518.89,594.95c-1.91,2.69-3.83,5.38-5.74,8.07-2.76,2.16-5.13,7.02-8.74,5.18-4.13-2.11-2.11-7.17-1.39-10.93,1.63-8.47,5.23-16.07,11.47-22.16,2.26-2.2,5.11-4.62,8.36-2.65,2.99,1.81,2.08,5.23,1.6,8.22-.83,5.17-3.56,9.57-5.56,14.27Z"/><path class="f" d="M438.99,541.03l1.26,.43c-.11,.1-.22,.29-.34,.29-.53,.03-.9-.17-.86-.79l-.06,.07Z"/><path class="e" d="M571.35,344.85c-8.61,0-8.84-.43-5.52-8.77,1.25-3.14,3.03-5.83,6.63-5.76,3.73,.07,5.1,3.08,6.04,6.27,2.35,8.02,2.17,8.26-7.14,8.26Z"/><path class="e" d="M438.38,581.2c-.44,9.62-3.32,18.12-9.64,25.25-2.29,2.59-5.16,4.69-8.75,3.22-3.41-1.4-3.82-4.9-3.79-8.07,.1-9.23,2.79-17.68,8.48-25.01,2.37-3.05,5.17-6.14,9.59-4.53,4.31,1.57,3.74,5.77,4.11,9.15Z"/><path class="d" d="M644.94,595.06c-.03-1.14-.14-2.36,1.63-2.12-.46,.77,.14,2.35-1.63,2.12Z"/><path class="d" d="M644.04,597.5c-1.22-1.45,0-1.97,.99-2.58,1.1,1.4,.42,2.13-.99,2.58Z"/><path class="n" d="M309.93,442.01c-.08,1.6-.57,3.52-1.68,5.21-2.74,4.16-15.37,8.67-20.27,7.3-4.14-1.16-5.97-4.33-4.52-8.35,2.56-7.1,7.77-12.22,13.22-17.12,1.1-.99,2.34-.86,3.71-.38,4.76,1.65,9.4,7.86,9.53,13.35Zm-19.79,6.24c4.06-.76,7.32-1.71,10.45-3.19,1.49-.7,2.52-1.65,2.22-3.39-.34-2-1.14-4-2.85-5.02-1.74-1.04-2.34,1.19-3.28,2.03-2.72,2.42-4.92,5.3-6.55,9.58Z"/><path class="l" d="M409.21,485.72c-.45,6.77-3.89,11.49-9.68,14.19-10.07,4.69-20.24,9.19-30.94,12.32-.95,.28-1.9,.66-2.88,.76-4.09,.44-8.55,1.63-11.57-2.27-3.03-3.93-.17-7.56,1.51-11.06,2.1-4.36,3.55-8.91,4.74-13.59,2.79-10.95,9.61-17.82,20.68-20.57,8.24-2.05,26.1,8.64,27.81,16.91,.23,1.13,.23,2.31,.33,3.32Zm-49.54,21.52c14.91-3.31,27.58-8.11,39.33-14.85,5.41-3.1,4.65-9.56-.64-13.13-2.33-1.57-4.87-2.85-7.37-4.15-8.53-4.44-17.61-1.49-21.51,7.37-3.38,7.68-4.46,16.21-9.82,24.75Z"/><path class="l" d="M377.37,451.22c-7-.22-11.82-.19-13.71-5.86-1.52-4.57,.72-9.51,5.82-13.1,4.02-2.82,8.28-4.74,13.41-4.39,5.27,.36,9.94-2.37,14.96-3.39,5-1.01,9.88-1.05,14.75,.47,2.88,.9,4.98,2.64,5.54,5.76,.6,3.36-.7,6.36-3.69,7.46-12.98,4.75-25.21,11.83-37.09,13.05Zm33.8-19.22c-4.07-1.6-7.76-1.4-11.52-.64-6.6,1.33-12.86,4.12-19.87,3.82-3.39-.15-6.16,2.35-8.27,4.96-1.47,1.82-1.82,3.87,1.56,3.9,2.8,.02,5.8,.32,8.38-.52,9.41-3.07,18.68-6.56,27.99-9.94,.53-.19,.91-.81,1.73-1.57Z"/><path class="m" d="M651.03,480.63c-1.78-18.14,4.98-34.03,16.62-46.62,13.28-14.35,23.19-14.72,37.51-3.56,9.63,7.51,16.93,16.6,15.01,30.11-.73,5.16-2.19,10.24-4.51,14.71-6.81,13.12-15.84,24.3-28.42,32.76-10.98,7.38-35.93-.1-36.2-18.91-.04-2.83,0-5.66,0-8.49Zm7.12-2.85c0,3.66,.19,7.33-.03,10.98-.74,12.36,18.66,19.16,27.17,12.67,8.01-6.11,14.26-13.36,20.06-21.25,3.9-5.3,6.2-11.43,7.67-17.75,2.77-11.91-1.87-17.8-13.27-27.13-11.79-9.65-23.29-3.66-29.33,5.86-6.97,10.99-14.26,22.4-12.26,36.61Z"/><path class="e" d="M290.13,448.25c1.63-4.28,3.83-7.16,6.55-9.58,.94-.84,1.54-3.07,3.28-2.03,1.72,1.03,2.52,3.02,2.85,5.02,.29,1.74-.73,2.69-2.22,3.39-3.13,1.48-6.39,2.43-10.45,3.19Z"/><path class="e" d="M359.67,507.24c5.35-8.54,6.44-17.08,9.82-24.75,3.9-8.87,12.98-11.81,21.51-7.37,2.5,1.3,5.04,2.58,7.37,4.15,5.29,3.57,6.04,10.02,.64,13.13-11.76,6.74-24.42,11.54-39.33,14.85Z"/><path class="e" d="M411.17,432c-.82,.76-1.19,1.38-1.73,1.57-9.31,3.38-18.58,6.87-27.99,9.94-2.58,.84-5.58,.55-8.38,.52-3.38-.02-3.03-2.08-1.56-3.9,2.11-2.61,4.88-5.11,8.27-4.96,7,.3,13.27-2.49,19.87-3.82,3.76-.76,7.45-.96,11.52,.64Z"/><path class="e" d="M658.15,477.79c-2-14.22,5.29-25.62,12.26-36.61,6.04-9.52,17.54-15.51,29.33-5.86,11.41,9.33,16.05,15.22,13.27,27.13-1.47,6.32-3.77,12.44-7.67,17.75-5.81,7.9-12.05,15.14-20.06,21.25-8.51,6.49-27.91-.31-27.17-12.67,.22-3.65,.03-7.32,.03-10.98Z"/></svg>